<svg width="15" height="15" viewBox="0 0 15 15" fill="none" xmlns="http://www.w3.org/2000/svg">
<g clip-path="url(#clip0_111_2346)">
<path d="M6.875 13.125C6.875 12.8764 6.77623 12.6379 6.60041 12.4621C6.4246 12.2863 6.18614 12.1875 5.9375 12.1875C5.68886 12.1875 5.4504 12.2863 5.27459 12.4621C5.09877 12.6379 5 12.8764 5 13.125H1.875C1.70924 13.125 1.55027 13.0592 1.43306 12.9419C1.31585 12.8247 1.25 12.6658 1.25 12.5V2.5C1.25 2.33424 1.31585 2.17527 1.43306 2.05806C1.55027 1.94085 1.70924 1.875 1.875 1.875H5C5 2.12364 5.09877 2.3621 5.27459 2.53791C5.4504 2.71373 5.68886 2.8125 5.9375 2.8125C6.18614 2.8125 6.4246 2.71373 6.60041 2.53791C6.77623 2.3621 6.875 2.12364 6.875 1.875H13.125C13.2908 1.875 13.4497 1.94085 13.5669 2.05806C13.6842 2.17527 13.75 2.33424 13.75 2.5V5.9375C13.3356 5.9375 12.9382 6.10212 12.6451 6.39515C12.3521 6.68817 12.1875 7.0856 12.1875 7.5C12.1875 7.9144 12.3521 8.31183 12.6451 8.60485C12.9382 8.89788 13.3356 9.0625 13.75 9.0625V12.5C13.75 12.6658 13.6842 12.8247 13.5669 12.9419C13.4497 13.0592 13.2908 13.125 13.125 13.125H6.875ZM5.9375 6.5625C6.18614 6.5625 6.4246 6.46373 6.60041 6.28791C6.77623 6.1121 6.875 5.87364 6.875 5.625C6.875 5.37636 6.77623 5.1379 6.60041 4.96209C6.4246 4.78627 6.18614 4.6875 5.9375 4.6875C5.68886 4.6875 5.4504 4.78627 5.27459 4.96209C5.09877 5.1379 5 5.37636 5 5.625C5 5.87364 5.09877 6.1121 5.27459 6.28791C5.4504 6.46373 5.68886 6.5625 5.9375 6.5625ZM5.9375 10.3125C6.18614 10.3125 6.4246 10.2137 6.60041 10.0379C6.77623 9.8621 6.875 9.62364 6.875 9.375C6.875 9.12636 6.77623 8.8879 6.60041 8.71209C6.4246 8.53627 6.18614 8.4375 5.9375 8.4375C5.68886 8.4375 5.4504 8.53627 5.27459 8.71209C5.09877 8.8879 5 9.12636 5 9.375C5 9.62364 5.09877 9.8621 5.27459 10.0379C5.4504 10.2137 5.68886 10.3125 5.9375 10.3125Z" fill="#013237"/>
</g>
<defs>
<clipPath id="clip0_111_2346">
<rect width="15" height="15" fill="white"/>
</clipPath>
</defs>
</svg>
