<svg width="72" height="18" viewBox="0 0 72 18" fill="none" xmlns="http://www.w3.org/2000/svg">
<path d="M10.824 0.344V0.199999H16.368V0.344L14.496 1.808L9.888 17H6.672L1.896 1.832L0.12 0.344V0.199999H7.392V0.344L5.184 1.832L9.192 14.744L13.104 1.808L10.824 0.344ZM24.5203 13.856L24.6163 13.928C23.9683 16.04 22.2163 17.288 20.0803 17.288C17.3203 17.288 15.2563 15.2 15.2563 11.624C15.2563 7.616 17.4643 5.168 20.4403 5.168C23.2003 5.168 24.7363 7.088 24.4003 10.352H18.4243V10.424C18.4243 13.952 20.0083 15.368 21.6883 15.368C22.8163 15.368 23.7523 14.792 24.5203 13.856ZM20.3443 6.392C19.2163 6.392 18.6163 7.376 18.4723 9.272H22.0483C21.9763 7.4 21.4243 6.392 20.3443 6.392ZM33.2531 5.288C34.4291 5.288 35.3651 6.104 35.3651 7.4C35.3651 8.48 34.6451 9.248 33.6371 9.248C32.7251 9.248 32.1731 8.696 32.1731 7.904C32.1731 7.304 32.4611 6.824 32.8931 6.56C32.7971 6.536 32.7251 6.536 32.6531 6.536C31.4291 6.536 30.4211 8.312 30.4211 10.4V15.752L32.8211 16.856V17H25.7411V16.856L27.4211 15.752V7.184L25.7411 6.488V6.344L30.1811 5.288H30.4211V7.4C31.0931 5.984 32.1251 5.288 33.2531 5.288ZM39.3366 3.488C38.2806 3.488 37.5126 2.744 37.5126 1.784C37.5126 0.823999 38.2326 0.079999 39.3366 0.079999C40.4166 0.079999 41.1606 0.8 41.1606 1.76C41.1606 2.72 40.4886 3.488 39.3366 3.488ZM42.6246 17H36.2646V16.856L37.9446 15.752V7.184L36.2646 6.488V6.344L40.7046 5.288H40.9446V15.752L42.6246 16.856V17ZM51.1946 14.096L51.3386 14.216C50.4746 16.352 49.0586 17.312 47.4266 17.312C46.1306 17.312 44.7866 16.568 44.7866 14.384V6.584H43.2026V6.44L47.6186 2.408H47.7866V5.48H51.0506V6.584H47.7866V13.592C47.7866 14.816 48.1706 15.44 49.0346 15.44C49.8026 15.44 50.5466 14.96 51.1946 14.096ZM54.9459 3.488C53.8899 3.488 53.1219 2.744 53.1219 1.784C53.1219 0.823999 53.8419 0.079999 54.9459 0.079999C56.0259 0.079999 56.7699 0.8 56.7699 1.76C56.7699 2.72 56.0979 3.488 54.9459 3.488ZM58.2339 17H51.8739V16.856L53.5539 15.752V7.184L51.8739 6.488V6.344L56.3139 5.288H56.5539V15.752L58.2339 16.856V17ZM66.636 10.64L70.044 15.776L71.844 16.856V17H64.86V16.856L66.516 15.776L64.404 12.56L62.004 15.776L63.636 16.856V17H58.644V16.856L60.564 15.776L63.756 11.624L60.516 6.704L58.644 5.624V5.48H65.556V5.624L64.044 6.704L66.012 9.656L68.052 6.704L66.54 5.624V5.48H71.412V5.624L69.492 6.704L66.636 10.64Z" fill="#F6E8DF"/>
</svg>
